{
	"asset":{
		"generator":"Khronos glTF Blender I/O v4.3.47",
		"version":"2.0"
	},
	"scene":0,
	"scenes":[
		{
			"name":"Scene",
			"nodes":[
				0,
				1,
				2,
				3,
				4,
				5,
				6
			]
		}
	],
	"nodes":[
		{
			"mesh":0,
			"name":"inner pyramid",
			"scale":[
				0.7121284008026123,
				0.5034081339836121,
				0.7121284008026123
			],
			"translation":[
				0,
				-0.48787787556648254,
				0
			]
		},
		{
			"mesh":1,
			"name":"inner pyramid top",
			"scale":[
				0.6499999761581421,
				0.44999998807907104,
				0.6499999761581421
			],
			"translation":[
				0,
				-0.4367107152938843,
				0
			]
		},
		{
			"mesh":2,
			"name":"pyramid"
		},
		{
			"mesh":3,
			"name":"pyramid top",
			"translation":[
				0,
				0.05012309551239014,
				0
			]
		},
		{
			"mesh":4,
			"name":"Cube.002",
			"translation":[
				-5.501298904418945,
				0,
				0
			]
		},
		{
			"mesh":5,
			"name":"Plane.001",
			"translation":[
				0,
				3.511516571044922,
				0
			]
		},
		{
			"mesh":6,
			"name":"showfloor",
			"scale":[
				4.03531551361084,
				4.03531551361084,
				4.03531551361084
			],
			"translation":[
				-1.1179250478744507,
				1.4991483688354492,
				2.5547962188720703
			]
		}
	],
	"materials":[
		{
			"doubleSided":true,
			"name":"Material.001",
			"pbrMetallicRoughness":{
				"baseColorFactor":[
					0,
					0,
					0,
					1
				],
				"roughnessFactor":0.5
			}
		},
		{
			"doubleSided":true,
			"emissiveFactor":[
				0.7632546448031121,
				0.15227482146354987,
				0.01588826684809863
			],
			"name":"glass",
			"pbrMetallicRoughness":{
				"baseColorFactor":[
					0,
					0,
					0,
					1
				]
			}
		},
		{
			"doubleSided":true,
			"name":"Material.002"
		},
		{
			"doubleSided":true,
			"name":"Material.004",
			"pbrMetallicRoughness":{
				"baseColorFactor":[
					1,
					0,
					0.6322076916694641,
					1
				],
				"metallicFactor":0,
				"roughnessFactor":0.5
			}
		}
	],
	"meshes":[
		{
			"name":"Cube.005",
			"primitives":[
				{
					"attributes":{
						"POSITION":0,
						"NORMAL":1,
						"TEXCOORD_0":2
					},
					"indices":3,
					"material":0
				}
			]
		},
		{
			"name":"Cube.004",
			"primitives":[
				{
					"attributes":{
						"POSITION":4,
						"NORMAL":5,
						"TEXCOORD_0":6
					},
					"indices":7,
					"material":1
				}
			]
		},
		{
			"name":"Cube.001",
			"primitives":[
				{
					"attributes":{
						"POSITION":8,
						"NORMAL":9,
						"TEXCOORD_0":10
					},
					"indices":11,
					"material":2
				}
			]
		},
		{
			"name":"Cube.002",
			"primitives":[
				{
					"attributes":{
						"POSITION":12,
						"NORMAL":13,
						"TEXCOORD_0":14
					},
					"indices":15,
					"material":1
				}
			]
		},
		{
			"name":"Cube.003",
			"primitives":[
				{
					"attributes":{
						"POSITION":16,
						"NORMAL":17,
						"TEXCOORD_0":18
					},
					"indices":19,
					"material":3
				}
			]
		},
		{
			"name":"Plane",
			"primitives":[
				{
					"attributes":{
						"POSITION":20,
						"NORMAL":21,
						"TEXCOORD_0":22
					},
					"indices":23
				}
			]
		},
		{
			"name":"Plane.001",
			"primitives":[
				{
					"attributes":{
						"POSITION":24,
						"NORMAL":25,
						"TEXCOORD_0":26
					},
					"indices":27
				}
			]
		}
	],
	"accessors":[
		{
			"bufferView":0,
			"componentType":5126,
			"count":42,
			"max":[
				1.430399775505066,
				0.6762258410453796,
				1.430399775505066
			],
			"min":[
				-1.430399775505066,
				-1.3272724151611328,
				-1.430399775505066
			],
			"type":"VEC3"
		},
		{
			"bufferView":1,
			"componentType":5126,
			"count":42,
			"type":"VEC3"
		},
		{
			"bufferView":2,
			"componentType":5126,
			"count":42,
			"type":"VEC2"
		},
		{
			"bufferView":3,
			"componentType":5123,
			"count":66,
			"type":"SCALAR"
		},
		{
			"bufferView":4,
			"componentType":5126,
			"count":32,
			"max":[
				0.18987835943698883,
				1,
				0.19019845128059387
			],
			"min":[
				-0.19019845128059387,
				0.6754952073097229,
				-0.1900889128446579
			],
			"type":"VEC3"
		},
		{
			"bufferView":5,
			"componentType":5126,
			"count":32,
			"type":"VEC3"
		},
		{
			"bufferView":6,
			"componentType":5126,
			"count":32,
			"type":"VEC2"
		},
		{
			"bufferView":7,
			"componentType":5123,
			"count":42,
			"type":"SCALAR"
		},
		{
			"bufferView":8,
			"componentType":5126,
			"count":40,
			"max":[
				1.430399775505066,
				0.6762258410453796,
				1.430399775505066
			],
			"min":[
				-1.430399775505066,
				-1.3272724151611328,
				-1.430399775505066
			],
			"type":"VEC3"
		},
		{
			"bufferView":9,
			"componentType":5126,
			"count":40,
			"type":"VEC3"
		},
		{
			"bufferView":10,
			"componentType":5126,
			"count":40,
			"type":"VEC2"
		},
		{
			"bufferView":11,
			"componentType":5123,
			"count":60,
			"type":"SCALAR"
		},
		{
			"bufferView":12,
			"componentType":5126,
			"count":32,
			"max":[
				0.18987835943698883,
				1,
				0.19019845128059387
			],
			"min":[
				-0.19019845128059387,
				0.6792812347412109,
				-0.1900889128446579
			],
			"type":"VEC3"
		},
		{
			"bufferView":13,
			"componentType":5126,
			"count":32,
			"type":"VEC3"
		},
		{
			"bufferView":14,
			"componentType":5126,
			"count":32,
			"type":"VEC2"
		},
		{
			"bufferView":15,
			"componentType":5123,
			"count":42,
			"type":"SCALAR"
		},
		{
			"bufferView":16,
			"componentType":5126,
			"count":24,
			"max":[
				1,
				1,
				1
			],
			"min":[
				-1,
				-1,
				-1
			],
			"type":"VEC3"
		},
		{
			"bufferView":17,
			"componentType":5126,
			"count":24,
			"type":"VEC3"
		},
		{
			"bufferView":18,
			"componentType":5126,
			"count":24,
			"type":"VEC2"
		},
		{
			"bufferView":19,
			"componentType":5123,
			"count":36,
			"type":"SCALAR"
		},
		{
			"bufferView":20,
			"componentType":5126,
			"count":4,
			"max":[
				1,
				0,
				1
			],
			"min":[
				-1,
				0,
				-1
			],
			"type":"VEC3"
		},
		{
			"bufferView":21,
			"componentType":5126,
			"count":4,
			"type":"VEC3"
		},
		{
			"bufferView":22,
			"componentType":5126,
			"count":4,
			"type":"VEC2"
		},
		{
			"bufferView":23,
			"componentType":5123,
			"count":6,
			"type":"SCALAR"
		},
		{
			"bufferView":24,
			"componentType":5126,
			"count":702,
			"max":[
				1.4188141822814941,
				1.278024435043335,
				1.8483513593673706
			],
			"min":[
				-3.5489580631256104,
				-1.927577018737793,
				-3.1194205284118652
			],
			"type":"VEC3"
		},
		{
			"bufferView":25,
			"componentType":5126,
			"count":702,
			"type":"VEC3"
		},
		{
			"bufferView":26,
			"componentType":5126,
			"count":702,
			"type":"VEC2"
		},
		{
			"bufferView":27,
			"componentType":5123,
			"count":1548,
			"type":"SCALAR"
		}
	],
	"bufferViews":[
		{
			"buffer":0,
			"byteLength":504,
			"byteOffset":0,
			"target":34962
		},
		{
			"buffer":0,
			"byteLength":504,
			"byteOffset":504,
			"target":34962
		},
		{
			"buffer":0,
			"byteLength":336,
			"byteOffset":1008,
			"target":34962
		},
		{
			"buffer":0,
			"byteLength":132,
			"byteOffset":1344,
			"target":34963
		},
		{
			"buffer":0,
			"byteLength":384,
			"byteOffset":1476,
			"target":34962
		},
		{
			"buffer":0,
			"byteLength":384,
			"byteOffset":1860,
			"target":34962
		},
		{
			"buffer":0,
			"byteLength":256,
			"byteOffset":2244,
			"target":34962
		},
		{
			"buffer":0,
			"byteLength":84,
			"byteOffset":2500,
			"target":34963
		},
		{
			"buffer":0,
			"byteLength":480,
			"byteOffset":2584,
			"target":34962
		},
		{
			"buffer":0,
			"byteLength":480,
			"byteOffset":3064,
			"target":34962
		},
		{
			"buffer":0,
			"byteLength":320,
			"byteOffset":3544,
			"target":34962
		},
		{
			"buffer":0,
			"byteLength":120,
			"byteOffset":3864,
			"target":34963
		},
		{
			"buffer":0,
			"byteLength":384,
			"byteOffset":3984,
			"target":34962
		},
		{
			"buffer":0,
			"byteLength":384,
			"byteOffset":4368,
			"target":34962
		},
		{
			"buffer":0,
			"byteLength":256,
			"byteOffset":4752,
			"target":34962
		},
		{
			"buffer":0,
			"byteLength":84,
			"byteOffset":5008,
			"target":34963
		},
		{
			"buffer":0,
			"byteLength":288,
			"byteOffset":5092,
			"target":34962
		},
		{
			"buffer":0,
			"byteLength":288,
			"byteOffset":5380,
			"target":34962
		},
		{
			"buffer":0,
			"byteLength":192,
			"byteOffset":5668,
			"target":34962
		},
		{
			"buffer":0,
			"byteLength":72,
			"byteOffset":5860,
			"target":34963
		},
		{
			"buffer":0,
			"byteLength":48,
			"byteOffset":5932,
			"target":34962
		},
		{
			"buffer":0,
			"byteLength":48,
			"byteOffset":5980,
			"target":34962
		},
		{
			"buffer":0,
			"byteLength":32,
			"byteOffset":6028,
			"target":34962
		},
		{
			"buffer":0,
			"byteLength":12,
			"byteOffset":6060,
			"target":34963
		},
		{
			"buffer":0,
			"byteLength":8424,
			"byteOffset":6072,
			"target":34962
		},
		{
			"buffer":0,
			"byteLength":8424,
			"byteOffset":14496,
			"target":34962
		},
		{
			"buffer":0,
			"byteLength":5616,
			"byteOffset":22920,
			"target":34962
		},
		{
			"buffer":0,
			"byteLength":3096,
			"byteOffset":28536,
			"target":34963
		}
	],
	"buffers":[
		{
			"byteLength":31632,
			"uri":"dream_desert_wo_lc.bin"
		}
	]
}
